<svg xmlns="http://www.w3.org/2000/svg" width="176" height="160" viewBox="0 0 176 160" role="img" aria-labelledby="logo-vertical-title logo-vertical-desc">
  <title id="logo-vertical-title">mingliatlas vertical logo</title>
  <desc id="logo-vertical-desc">A centered Tai Chi-inspired mark with the mingliatlas wordmark stacked below.</desc>
  <defs>
    <linearGradient id="eb-vertical-red" x1="52" y1="10" x2="124" y2="82" gradientUnits="userSpaceOnUse">
      <stop offset="0" stop-color="#8B0000" />
      <stop offset="0.55" stop-color="#C95A44" />
      <stop offset="1" stop-color="#C9A84C" />
    </linearGradient>
    <linearGradient id="eb-vertical-gold" x1="60" y1="18" x2="116" y2="74" gradientUnits="userSpaceOnUse">
      <stop offset="0" stop-color="#D4B460" />
      <stop offset="1" stop-color="#B89335" />
    </linearGradient>
  </defs>
  <g fill="none" fill-rule="evenodd">
    <circle cx="88" cy="48" r="36" fill="#FDFBF7" stroke="#8B0000" stroke-width="3" />
    <path fill="url(#eb-vertical-red)" d="M88 14a34 34 0 1 1 0 68c11.05 0 20-7.61 20-17S99.05 48 88 48s-20-7.61-20-17 8.95-17 20-17Z" />
    <path fill="url(#eb-vertical-gold)" d="M88 14a34 34 0 0 0 0 68c-11.05 0-20-7.61-20-17s8.95-17 20-17 20-7.61 20-17-8.95-17-20-17Z" opacity="0.95" />
    <circle cx="88" cy="31" r="5" fill="#FDFBF7" />
    <circle cx="88" cy="65" r="5" fill="#8B0000" />
    <g fill="#C9A84C">
      <circle cx="88" cy="5" r="4" />
      <circle cx="128" cy="34" r="4" />
      <circle cx="113" cy="82" r="4" />
      <circle cx="63" cy="82" r="4" />
      <circle cx="48" cy="34" r="4" />
    </g>
    <text x="88" y="122" fill="#1A1A2E" text-anchor="middle" font-family="Cormorant Garamond, Georgia, serif" font-size="29" font-weight="700" letter-spacing="0">mingliatlas</text>
    <text x="88" y="140" fill="#3A3A50" text-anchor="middle" font-family="Inter, system-ui, sans-serif" font-size="9" font-weight="600" letter-spacing="1.4">WHERE EASTERN WISDOM</text>
    <text x="88" y="153" fill="#3A3A50" text-anchor="middle" font-family="Inter, system-ui, sans-serif" font-size="9" font-weight="600" letter-spacing="1.4">MEETS MODERN LOGIC</text>
  </g>
</svg>
